<svg viewBox="0 0 960 720" fill="none" stroke-linecap="square" stroke-miterlimit="10" xmlns="http://www.w3.org/2000/svg">
  <clipPath id="a">
    <path d="M0 0h960v720H0V0z"/>
  </clipPath>
  <g clip-path="url(#a)">
    <path fill="none" d="M0 0h960v720H0z"/>
    <path fill="#6500d0" d="M197 77h113v113H197z" fill-rule="evenodd"/>
    <path stroke="#6500d0" stroke-linejoin="round" stroke-linecap="butt" d="M197 77h113v113H197z"/>
    <path fill="#6500d0" d="M310 77h113v113H310z" fill-rule="evenodd"/>
    <path stroke="#6500d0" stroke-linejoin="round" stroke-linecap="butt" d="M310 77h113v113H310z"/>
    <path fill="#6500d0" d="M310 190h113v113H310z" fill-rule="evenodd"/>
    <path stroke="#6500d0" stroke-linejoin="round" stroke-linecap="butt" d="M310 190h113v113H310z"/>
    <path fill="#6500d0" d="M423 190h114v113H423z" fill-rule="evenodd"/>
    <path stroke="#6500d0" stroke-linejoin="round" stroke-linecap="butt" d="M423 190h114v113H423z"/>
    <path fill="#6500d0" d="M537 190h113v113H537z" fill-rule="evenodd"/>
    <path stroke="#6500d0" stroke-linejoin="round" stroke-linecap="butt" d="M537 190h113v113H537z"/>
    <path fill="#6500d0" d="M423 303h114v114H423z" fill-rule="evenodd"/>
    <path stroke="#6500d0" stroke-linejoin="round" stroke-linecap="butt" d="M423 303h114v114H423z"/>
    <path fill="#6500d0" d="M423 417h114v113H423z" fill-rule="evenodd"/>
    <path stroke="#6500d0" stroke-linejoin="round" stroke-linecap="butt" d="M423 417h114v113H423z"/>
    <path fill="#6500d0" d="M310 417h113v113H310z" fill-rule="evenodd"/>
    <path stroke="#6500d0" stroke-linejoin="round" stroke-linecap="butt" d="M310 417h113v113H310z"/>
    <path fill="#6500d0" d="M197 303h113v114H197z" fill-rule="evenodd"/>
    <path stroke="#6500d0" stroke-linejoin="round" stroke-linecap="butt" d="M197 303h113v114H197z"/>
    <path fill="#6500d0" d="M310 530h113v113H310z" fill-rule="evenodd"/>
    <path stroke="#6500d0" stroke-linejoin="round" stroke-linecap="butt" d="M310 530h113v113H310z"/>
    <path fill="#6500d0" d="M537 530h113v113H537z" fill-rule="evenodd"/>
    <path stroke="#6500d0" stroke-linejoin="round" stroke-linecap="butt" d="M537 530h113v113H537z"/>
    <path fill="#6500d0" d="M537 417h113v113H537z" fill-rule="evenodd"/>
    <path stroke="#6500d0" stroke-linejoin="round" stroke-linecap="butt" d="M537 417h113v113H537z"/>
    <path fill="#6500d0" d="M650 303h113v114H650z" fill-rule="evenodd"/>
    <path stroke="#6500d0" stroke-linejoin="round" stroke-linecap="butt" d="M650 303h113v114H650z"/>
    <path fill="#6500d0" d="M537 77h113v113H537z" fill-rule="evenodd"/>
    <path stroke="#6500d0" stroke-linejoin="round" stroke-linecap="butt" d="M537 77h113v113H537z"/>
    <path fill="#6500d0" d="M650 77h113v113H650z" fill-rule="evenodd"/>
    <path stroke="#6500d0" stroke-linejoin="round" stroke-linecap="butt" d="M650 77h113v113H650z"/>
  </g>
</svg>
