<svg version="1.1" viewBox="0.0 0.0 960.0 720.0" fill="none" stroke="none" stroke-linecap="square" stroke-miterlimit="10" xmlns:xlink="http://www.w3.org/1999/xlink" xmlns="http://www.w3.org/2000/svg"><clipPath id="p.0"><path d="m0 0l960.0 0l0 720.0l-960.0 0l0 -720.0z" clip-rule="nonzero"/></clipPath><g clip-path="url(#p.0)"><path fill="#000000" fill-opacity="0.0" d="m0 0l960.0 0l0 720.0l-960.0 0z" fill-rule="evenodd"/><path fill="#6500d0" d="m196.53494 76.53513l113.38568 0l0 113.385704l-113.38568 0z" fill-rule="evenodd"/><path stroke="#6500d0" stroke-width="1.0" stroke-linejoin="round" stroke-linecap="butt" d="m196.53494 76.53513l113.38568 0l0 113.385704l-113.38568 0z" fill-rule="evenodd"/><path fill="#6500d0" d="m309.92062 76.53513l113.38571 0l0 113.385704l-113.38571 0z" fill-rule="evenodd"/><path stroke="#6500d0" stroke-width="1.0" stroke-linejoin="round" stroke-linecap="butt" d="m309.92062 76.53513l113.38571 0l0 113.385704l-113.38571 0z" fill-rule="evenodd"/><path fill="#6500d0" d="m309.92062 189.92084l113.38571 0l0 113.38571l-113.38571 0z" fill-rule="evenodd"/><path stroke="#6500d0" stroke-width="1.0" stroke-linejoin="round" stroke-linecap="butt" d="m309.92062 189.92084l113.38571 0l0 113.38571l-113.38571 0z" fill-rule="evenodd"/><path fill="#6500d0" d="m423.30634 189.92084l113.38568 0l0 113.38571l-113.38568 0z" fill-rule="evenodd"/><path stroke="#6500d0" stroke-width="1.0" stroke-linejoin="round" stroke-linecap="butt" d="m423.30634 189.92084l113.38568 0l0 113.38571l-113.38568 0z" fill-rule="evenodd"/><path fill="#6500d0" d="m536.692 189.92084l113.38574 0l0 113.38571l-113.38574 0z" fill-rule="evenodd"/><path stroke="#6500d0" stroke-width="1.0" stroke-linejoin="round" stroke-linecap="butt" d="m536.692 189.92084l113.38574 0l0 113.38571l-113.38574 0z" fill-rule="evenodd"/><path fill="#6500d0" d="m423.30634 303.30655l113.38568 0l0 113.38568l-113.38568 0z" fill-rule="evenodd"/><path stroke="#6500d0" stroke-width="1.0" stroke-linejoin="round" stroke-linecap="butt" d="m423.30634 303.30655l113.38568 0l0 113.38568l-113.38568 0z" fill-rule="evenodd"/><path fill="#6500d0" d="m423.30634 416.69223l113.38568 0l0 113.38571l-113.38568 0z" fill-rule="evenodd"/><path stroke="#6500d0" stroke-width="1.0" stroke-linejoin="round" stroke-linecap="butt" d="m423.30634 416.69223l113.38568 0l0 113.38571l-113.38568 0z" fill-rule="evenodd"/><path fill="#6500d0" d="m309.92062 416.69016l113.38571 0l0 113.38571l-113.38571 0z" fill-rule="evenodd"/><path stroke="#6500d0" stroke-width="1.0" stroke-linejoin="round" stroke-linecap="butt" d="m309.92062 416.69016l113.38571 0l0 113.38571l-113.38571 0z" fill-rule="evenodd"/><path fill="#6500d0" d="m196.53494 303.30655l113.38568 0l0 113.38568l-113.38568 0z" fill-rule="evenodd"/><path stroke="#6500d0" stroke-width="1.0" stroke-linejoin="round" stroke-linecap="butt" d="m196.53494 303.30655l113.38568 0l0 113.38568l-113.38568 0z" fill-rule="evenodd"/><path fill="#6500d0" d="m309.92062 530.07794l113.38571 0l0 113.38568l-113.38571 0z" fill-rule="evenodd"/><path stroke="#6500d0" stroke-width="1.0" stroke-linejoin="round" stroke-linecap="butt" d="m309.92062 530.07794l113.38571 0l0 113.38568l-113.38571 0z" fill-rule="evenodd"/><path fill="#6500d0" d="m536.692 530.07794l113.38574 0l0 113.38568l-113.38574 0z" fill-rule="evenodd"/><path stroke="#6500d0" stroke-width="1.0" stroke-linejoin="round" stroke-linecap="butt" d="m536.692 530.07794l113.38574 0l0 113.38568l-113.38574 0z" fill-rule="evenodd"/><path fill="#6500d0" d="m536.692 416.69223l113.38574 0l0 113.38571l-113.38574 0z" fill-rule="evenodd"/><path stroke="#6500d0" stroke-width="1.0" stroke-linejoin="round" stroke-linecap="butt" d="m536.692 416.69223l113.38574 0l0 113.38571l-113.38574 0z" fill-rule="evenodd"/><path fill="#6500d0" d="m650.07776 303.30655l113.38568 0l0 113.38568l-113.38568 0z" fill-rule="evenodd"/><path stroke="#6500d0" stroke-width="1.0" stroke-linejoin="round" stroke-linecap="butt" d="m650.07776 303.30655l113.38568 0l0 113.38568l-113.38568 0z" fill-rule="evenodd"/><path fill="#6500d0" d="m536.692 76.53513l113.38574 0l0 113.385704l-113.38574 0z" fill-rule="evenodd"/><path stroke="#6500d0" stroke-width="1.0" stroke-linejoin="round" stroke-linecap="butt" d="m536.692 76.53513l113.38574 0l0 113.385704l-113.38574 0z" fill-rule="evenodd"/><path fill="#6500d0" d="m650.07776 76.53513l113.38568 0l0 113.385704l-113.38568 0z" fill-rule="evenodd"/><path stroke="#6500d0" stroke-width="1.0" stroke-linejoin="round" stroke-linecap="butt" d="m650.07776 76.53513l113.38568 0l0 113.385704l-113.38568 0z" fill-rule="evenodd"/></g></svg>